
[ERROR] : 2020-10-28 10:05:42 : Failed to Share C:\Users\TEMP\AppData\Roaming\SPB_Data\IBA_IOAPDATA\2020-10-28_09-50-35\logs\iBA_Launcher_1_2020-10-28_09-50-41.log with Server with HTTP Status code :403
[ERROR] : 2020-10-28 10:05:42 : Failed to Share C:\Users\TEMP\AppData\Roaming\SPB_Data\IBA_IOAPDATA\2020-10-28_09-50-35\logs\iBA_Launcher_2_2020-10-28_09-55-42.log with Server with HTTP Status code :403
[ERROR] : 2020-10-28 10:05:43 : Failed to Share C:\Users\TEMP\AppData\Roaming\SPB_Data\IBA_IOAPDATA\2020-10-28_09-50-35\logs\iBA_Launcher_3_2020-10-28_10-00-42.log with Server with HTTP Status code :403
[INFO] : 2020-10-28 10:05:45 : Hearbeat Response ::: Loaded
[INFO] : 2020-10-28 10:06:16 : Hearbeat Response ::: Loaded
[INFO] : 2020-10-28 10:06:36 : Camera list in check_camera_connection: ["EasyCamera"]
[INFO] : 2020-10-28 10:06:36 : FINAL COMMAND : "C:\Users\TEMP\AppData\Local\Temp\_MEI59~1\static\ffmpeg.exe" -y -hide_banner -f dshow -rtbufsize 1024M -i video="@device_pnp_\\?\usb#vid_0bda&pid_58ea&mi_00#6&1739f836&1&0000#{65e8773d-8f56-11d0-a3b9-00a0c9223196}\global" -pix_fmt yuv420p -r 10 -s 320x240 -b:v 800k -maxrate 800k -minrate 400k -metadata mac=54:e1:ad:7c:c8:80 -metadata created_time=2020:10:28_10:06:36 -metadata candidateId=3404_56_1 -metadata filename=video14 -preset veryfast -crf 22 -t 5 "C:\Users\TEMP\AppData\Roaming\SPB_Data\IBA_IOAPDATA\2020-10-28_09-50-35\videos\video14.webm"
[INFO] : 2020-10-28 10:06:43 : ffmpeg output for C:\Users\TEMP\AppData\Roaming\SPB_Data\IBA_IOAPDATA\2020-10-28_09-50-35\videos\video14.webm ::: Input #0, dshow, from 'video=@device_pnp_\\?\usb#vid_0bda&pid_58ea&mi_00#6&1739f836&1&0000#{65e8773d-8f56-11d0-a3b9-00a0c9223196}\global':
  Duration: N/A, start: 2095.414000, bitrate: N/A
    Stream #0:0: Video: mjpeg (Baseline) (MJPG / 0x47504A4D), yuvj422p(pc, bt470bg/unknown/unknown), 1280x720, 30 fps, 30 tbr, 10000k tbn, 10000k tbc
Codec AVOption preset (Configuration preset) specified for output file #0 (C:\Users\TEMP\AppData\Roaming\SPB_Data\IBA_IOAPDATA\2020-10-28_09-50-35\videos\video14.webm) has not been used for any stream. The most likely reason is either wrong type (e.g. a video option with no video streams) or that it is a private option of some encoder which was not actually used for any stream.
Stream mapping:
  Stream #0:0 -> #0:0 (mjpeg (native) -> vp9 (libvpx-vp9))
Press [q] to stop, [?] for help
[swscaler @ 0642f900] deprecated pixel format used, make sure you did set range correctly
[libvpx-vp9 @ 06384ac0] v1.8.1-133-g802569640
Output #0, webm, to 'C:\Users\TEMP\AppData\Roaming\SPB_Data\IBA_IOAPDATA\2020-10-28_09-50-35\videos\video14.webm':
  Metadata:
    mac             : 54:e1:ad:7c:c8:80
    created_time    : 2020:10:28_10:06:36
    candidateId     : 3404_56_1
    filename        : video14
    encoder         : Lavf58.29.100
    Stream #0:0: Video: vp9 (libvpx-vp9), yuv420p, 320x240, q=-1--1, 800 kb/s, 10 fps, 1k tbn, 10 tbc
    Metadata:
      encoder         : Lavc58.54.100 libvpx-vp9
    Side data:
      cpb: bitrate max/min/avg: 0/0/0 buffer size: 0 vbv_delay: -1
frame=    6 fps=0.0 q=0.0 size=       1kB time=00:00:00.00 bitrate=N/A dup=0 drop=9 speed=   0x    frame=   12 fps= 12 q=0.0 size=       1kB time=00:00:00.00 bitrate=N/A dup=0 drop=19 speed=   0x    frame=   16 fps= 11 q=0.0 size=       1kB time=00:00:00.00 bitrate=N/A dup=0 drop=28 speed=   0x    frame=   21 fps= 10 q=0.0 size=       1kB time=00:00:00.00 bitrate=N/A dup=0 drop=38 speed=   0x    frame=   26 fps= 10 q=0.0 size=       1kB time=00:00:00.10 bitrate=  60.1kbits/s dup=0 drop=47 speed=0.0396x    frame=   32 fps= 10 q=0.0 size=       1kB time=00:00:00.70 bitrate=   8.7kbits/s dup=0 drop=59 speed=0.228x    frame=   36 fps= 10 q=0.0 size=       1kB time=00:00:01.10 bitrate=   5.5kbits/s dup=0 drop=67 speed=0.304x    frame=   43 fps= 10 q=0.0 size=       1kB time=00:00:01.80 bitrate=   3.4kbits/s dup=0 drop=81 speed=0.433x    frame=   46 fps=9.8 q=0.0 size=       1kB time=00:00:02.10 bitrate=   2.9kbits/s dup=0 drop=87 speed=0.45x    frame=   50 fps=7.7 q=0.0 Lsize=      83kB time=00:00:04.90 bitrate= 138.1kbits/s dup=0 drop=97 speed=0.759x    
video:82kB audio:0kB subtitle:0kB other streams:0kB global headers:0kB muxing overhead: 1.366991%

[INFO] : 2020-10-28 10:06:43 : Filesize of C:\Users\TEMP\AppData\Roaming\SPB_Data\IBA_IOAPDATA\2020-10-28_09-50-35\videos\video14.webm ::: 82 KB
[INFO] : 2020-10-28 10:06:43 : https://g81.tcsion.com:443//IBAFileUpload/IBAFiles.do?action=RemoteProctoredData&mockId=56&attemptIds=1&candMasterId=3404&orgId=31162&createdBy=13598527&proctoredFileType=video&candidateImageId=14099790_1016&faceComparisonRequired=1&assessmentIndex=_23&startTimeStamp=2020:10:28_10:06:36&endTimeStamp=2020:10:28_10:06:43&fileName=video14.webm
[INFO] : 2020-10-28 10:06:44 : C:\Users\TEMP\AppData\Roaming\SPB_Data\IBA_IOAPDATA\2020-10-28_09-50-35\videos\video14.webm ::: uploaded in 0:00:00.595000
[INFO] : 2020-10-28 10:06:44 : C:\Users\TEMP\AppData\Roaming\SPB_Data\IBA_IOAPDATA\2020-10-28_09-50-35\videos\video14.webm deleted sucessfully.
[INFO] : 2020-10-28 10:06:46 : Hearbeat Response ::: Loaded
[INFO] : 2020-10-28 10:07:17 : Hearbeat Response ::: Loaded
[INFO] : 2020-10-28 10:07:43 : Camera list in check_camera_connection: ["EasyCamera"]
[INFO] : 2020-10-28 10:07:43 : FINAL COMMAND : "C:\Users\TEMP\AppData\Local\Temp\_MEI59~1\static\ffmpeg.exe" -y -hide_banner -f dshow -rtbufsize 1024M -i video="@device_pnp_\\?\usb#vid_0bda&pid_58ea&mi_00#6&1739f836&1&0000#{65e8773d-8f56-11d0-a3b9-00a0c9223196}\global" -pix_fmt yuv420p -r 10 -s 320x240 -b:v 800k -maxrate 800k -minrate 400k -metadata mac=54:e1:ad:7c:c8:80 -metadata created_time=2020:10:28_10:07:43 -metadata candidateId=3404_56_1 -metadata filename=video15 -preset veryfast -crf 22 -t 5 "C:\Users\TEMP\AppData\Roaming\SPB_Data\IBA_IOAPDATA\2020-10-28_09-50-35\videos\video15.webm"
[INFO] : 2020-10-28 10:07:47 : Hearbeat Response ::: Loaded
[INFO] : 2020-10-28 10:07:50 : ffmpeg output for C:\Users\TEMP\AppData\Roaming\SPB_Data\IBA_IOAPDATA\2020-10-28_09-50-35\videos\video15.webm ::: Input #0, dshow, from 'video=@device_pnp_\\?\usb#vid_0bda&pid_58ea&mi_00#6&1739f836&1&0000#{65e8773d-8f56-11d0-a3b9-00a0c9223196}\global':
  Duration: N/A, start: 2162.727000, bitrate: N/A
    Stream #0:0: Video: mjpeg (Baseline) (MJPG / 0x47504A4D), yuvj422p(pc, bt470bg/unknown/unknown), 1280x720, 30 fps, 30 tbr, 10000k tbn, 10000k tbc
Codec AVOption preset (Configuration preset) specified for output file #0 (C:\Users\TEMP\AppData\Roaming\SPB_Data\IBA_IOAPDATA\2020-10-28_09-50-35\videos\video15.webm) has not been used for any stream. The most likely reason is either wrong type (e.g. a video option with no video streams) or that it is a private option of some encoder which was not actually used for any stream.
Stream mapping:
  Stream #0:0 -> #0:0 (mjpeg (native) -> vp9 (libvpx-vp9))
Press [q] to stop, [?] for help
[swscaler @ 064fd3c0] deprecated pixel format used, make sure you did set range correctly
[libvpx-vp9 @ 06454ac0] v1.8.1-133-g802569640
Output #0, webm, to 'C:\Users\TEMP\AppData\Roaming\SPB_Data\IBA_IOAPDATA\2020-10-28_09-50-35\videos\video15.webm':
  Metadata:
    mac             : 54:e1:ad:7c:c8:80
    created_time    : 2020:10:28_10:07:43
    candidateId     : 3404_56_1
    filename        : video15
    encoder         : Lavf58.29.100
    Stream #0:0: Video: vp9 (libvpx-vp9), yuv420p, 320x240, q=-1--1, 800 kb/s, 10 fps, 1k tbn, 10 tbc
    Metadata:
      encoder         : Lavc58.54.100 libvpx-vp9
    Side data:
      cpb: bitrate max/min/avg: 0/0/0 buffer size: 0 vbv_delay: -1
frame=    6 fps=0.0 q=0.0 size=       1kB time=00:00:00.00 bitrate=N/A dup=0 drop=9 speed=   0x    frame=   12 fps= 12 q=0.0 size=       1kB time=00:00:00.00 bitrate=N/A dup=0 drop=19 speed=   0x    frame=   17 fps= 11 q=0.0 size=       1kB time=00:00:00.00 bitrate=N/A dup=0 drop=29 speed=   0x    frame=   22 fps= 11 q=0.0 size=       1kB time=00:00:00.00 bitrate=N/A dup=0 drop=39 speed=   0x    frame=   26 fps= 10 q=0.0 size=       1kB time=00:00:00.10 bitrate=  60.1kbits/s dup=0 drop=47 speed=0.0398x    frame=   32 fps= 10 q=0.0 size=       1kB time=00:00:00.70 bitrate=   8.7kbits/s dup=0 drop=59 speed=0.228x    frame=   36 fps= 10 q=0.0 size=       1kB time=00:00:01.10 bitrate=   5.5kbits/s dup=0 drop=67 speed=0.307x    frame=   42 fps= 10 q=0.0 size=       1kB time=00:00:01.70 bitrate=   3.6kbits/s dup=0 drop=79 speed=0.416x    frame=   45 fps=9.8 q=0.0 size=       1kB time=00:00:02.00 bitrate=   3.0kbits/s dup=0 drop=85 speed=0.435x    frame=   50 fps=8.0 q=0.0 Lsize=      69kB time=00:00:04.90 bitrate= 114.8kbits/s dup=0 drop=97 speed=0.784x    
video:68kB audio:0kB subtitle:0kB other streams:0kB global headers:0kB muxing overhead: 1.648558%

[INFO] : 2020-10-28 10:07:50 : Filesize of C:\Users\TEMP\AppData\Roaming\SPB_Data\IBA_IOAPDATA\2020-10-28_09-50-35\videos\video15.webm ::: 68 KB
[INFO] : 2020-10-28 10:07:50 : https://g81.tcsion.com:443//IBAFileUpload/IBAFiles.do?action=RemoteProctoredData&mockId=56&attemptIds=1&candMasterId=3404&orgId=31162&createdBy=13598527&proctoredFileType=video&candidateImageId=14099790_1016&faceComparisonRequired=1&assessmentIndex=_23&startTimeStamp=2020:10:28_10:07:43&endTimeStamp=2020:10:28_10:07:50&fileName=video15.webm
[INFO] : 2020-10-28 10:07:51 : C:\Users\TEMP\AppData\Roaming\SPB_Data\IBA_IOAPDATA\2020-10-28_09-50-35\videos\video15.webm ::: uploaded in 0:00:00.547000
[INFO] : 2020-10-28 10:07:51 : C:\Users\TEMP\AppData\Roaming\SPB_Data\IBA_IOAPDATA\2020-10-28_09-50-35\videos\video15.webm deleted sucessfully.
[INFO] : 2020-10-28 10:08:18 : Hearbeat Response ::: Loaded
[INFO] : 2020-10-28 10:08:49 : Hearbeat Response ::: Loaded
[INFO] : 2020-10-28 10:08:51 : Camera list in check_camera_connection: ["EasyCamera"]
[INFO] : 2020-10-28 10:08:51 : FINAL COMMAND : "C:\Users\TEMP\AppData\Local\Temp\_MEI59~1\static\ffmpeg.exe" -y -hide_banner -f dshow -rtbufsize 1024M -i video="@device_pnp_\\?\usb#vid_0bda&pid_58ea&mi_00#6&1739f836&1&0000#{65e8773d-8f56-11d0-a3b9-00a0c9223196}\global" -pix_fmt yuv420p -r 10 -s 320x240 -b:v 800k -maxrate 800k -minrate 400k -metadata mac=54:e1:ad:7c:c8:80 -metadata created_time=2020:10:28_10:08:51 -metadata candidateId=3404_56_1 -metadata filename=video16 -preset veryfast -crf 22 -t 5 "C:\Users\TEMP\AppData\Roaming\SPB_Data\IBA_IOAPDATA\2020-10-28_09-50-35\videos\video16.webm"
[INFO] : 2020-10-28 10:08:58 : ffmpeg output for C:\Users\TEMP\AppData\Roaming\SPB_Data\IBA_IOAPDATA\2020-10-28_09-50-35\videos\video16.webm ::: Input #0, dshow, from 'video=@device_pnp_\\?\usb#vid_0bda&pid_58ea&mi_00#6&1739f836&1&0000#{65e8773d-8f56-11d0-a3b9-00a0c9223196}\global':
  Duration: N/A, start: 2230.032000, bitrate: N/A
    Stream #0:0: Video: mjpeg (Baseline) (MJPG / 0x47504A4D), yuvj422p(pc, bt470bg/unknown/unknown), 1280x720, 30 fps, 30 tbr, 10000k tbn, 10000k tbc
Codec AVOption preset (Configuration preset) specified for output file #0 (C:\Users\TEMP\AppData\Roaming\SPB_Data\IBA_IOAPDATA\2020-10-28_09-50-35\videos\video16.webm) has not been used for any stream. The most likely reason is either wrong type (e.g. a video option with no video streams) or that it is a private option of some encoder which was not actually used for any stream.
Stream mapping:
  Stream #0:0 -> #0:0 (mjpeg (native) -> vp9 (libvpx-vp9))
Press [q] to stop, [?] for help
[swscaler @ 0687bec0] deprecated pixel format used, make sure you did set range correctly
[libvpx-vp9 @ 067d4c40] v1.8.1-133-g802569640
Output #0, webm, to 'C:\Users\TEMP\AppData\Roaming\SPB_Data\IBA_IOAPDATA\2020-10-28_09-50-35\videos\video16.webm':
  Metadata:
    mac             : 54:e1:ad:7c:c8:80
    created_time    : 2020:10:28_10:08:51
    candidateId     : 3404_56_1
    filename        : video16
    encoder         : Lavf58.29.100
    Stream #0:0: Video: vp9 (libvpx-vp9), yuv420p, 320x240, q=-1--1, 800 kb/s, 10 fps, 1k tbn, 10 tbc
    Metadata:
      encoder         : Lavc58.54.100 libvpx-vp9
    Side data:
      cpb: bitrate max/min/avg: 0/0/0 buffer size: 0 vbv_delay: -1
frame=    6 fps=0.0 q=0.0 size=       1kB time=00:00:00.00 bitrate=N/A dup=0 drop=7 speed=   0x    frame=   12 fps= 11 q=0.0 size=       1kB time=00:00:00.00 bitrate=N/A dup=0 drop=14 speed=   0x    frame=   17 fps= 11 q=0.0 size=       1kB time=00:00:00.00 bitrate=N/A dup=0 drop=24 speed=   0x    frame=   23 fps= 11 q=0.0 size=       1kB time=00:00:00.00 bitrate=N/A dup=0 drop=32 speed=   0x    frame=   28 fps= 11 q=0.0 size=       1kB time=00:00:00.30 bitrate=  20.2kbits/s dup=0 drop=42 speed=0.115x    frame=   32 fps= 10 q=0.0 size=       1kB time=00:00:00.70 bitrate=   8.7kbits/s dup=0 drop=48 speed=0.225x    frame=   36 fps=9.9 q=0.0 size=       1kB time=00:00:01.10 bitrate=   5.5kbits/s dup=0 drop=54 speed=0.302x    frame=   43 fps= 10 q=0.0 size=       1kB time=00:00:01.80 bitrate=   3.4kbits/s dup=0 drop=69 speed=0.429x    frame=   46 fps=9.8 q=0.0 size=       1kB time=00:00:02.10 bitrate=   2.9kbits/s dup=0 drop=75 speed=0.446x    frame=   50 fps=7.7 q=0.0 Lsize=      80kB time=00:00:04.90 bitrate= 134.4kbits/s dup=0 drop=84 speed=0.753x    
video:79kB audio:0kB subtitle:0kB other streams:0kB global headers:0kB muxing overhead: 1.404269%

[INFO] : 2020-10-28 10:08:58 : Filesize of C:\Users\TEMP\AppData\Roaming\SPB_Data\IBA_IOAPDATA\2020-10-28_09-50-35\videos\video16.webm ::: 80 KB
[INFO] : 2020-10-28 10:08:58 : https://g81.tcsion.com:443//IBAFileUpload/IBAFiles.do?action=RemoteProctoredData&mockId=56&attemptIds=1&candMasterId=3404&orgId=31162&createdBy=13598527&proctoredFileType=video&candidateImageId=14099790_1016&faceComparisonRequired=1&assessmentIndex=_23&startTimeStamp=2020:10:28_10:08:51&endTimeStamp=2020:10:28_10:08:58&fileName=video16.webm
[INFO] : 2020-10-28 10:08:59 : C:\Users\TEMP\AppData\Roaming\SPB_Data\IBA_IOAPDATA\2020-10-28_09-50-35\videos\video16.webm ::: uploaded in 0:00:00.709000
[INFO] : 2020-10-28 10:08:59 : C:\Users\TEMP\AppData\Roaming\SPB_Data\IBA_IOAPDATA\2020-10-28_09-50-35\videos\video16.webm deleted sucessfully.
[INFO] : 2020-10-28 10:09:19 : Hearbeat Response ::: Loaded
[INFO] : 2020-10-28 10:09:50 : Hearbeat Response ::: Loaded
[INFO] : 2020-10-28 10:09:58 : Camera list in check_camera_connection: ["EasyCamera"]
[INFO] : 2020-10-28 10:09:58 : FINAL COMMAND : "C:\Users\TEMP\AppData\Local\Temp\_MEI59~1\static\ffmpeg.exe" -y -hide_banner -f dshow -rtbufsize 1024M -i video="@device_pnp_\\?\usb#vid_0bda&pid_58ea&mi_00#6&1739f836&1&0000#{65e8773d-8f56-11d0-a3b9-00a0c9223196}\global" -pix_fmt yuv420p -r 10 -s 320x240 -b:v 800k -maxrate 800k -minrate 400k -metadata mac=54:e1:ad:7c:c8:80 -metadata created_time=2020:10:28_10:09:58 -metadata candidateId=3404_56_1 -metadata filename=video17 -preset veryfast -crf 22 -t 5 "C:\Users\TEMP\AppData\Roaming\SPB_Data\IBA_IOAPDATA\2020-10-28_09-50-35\videos\video17.webm"
[INFO] : 2020-10-28 10:10:05 : ffmpeg output for C:\Users\TEMP\AppData\Roaming\SPB_Data\IBA_IOAPDATA\2020-10-28_09-50-35\videos\video17.webm ::: Input #0, dshow, from 'video=@device_pnp_\\?\usb#vid_0bda&pid_58ea&mi_00#6&1739f836&1&0000#{65e8773d-8f56-11d0-a3b9-00a0c9223196}\global':
  Duration: N/A, start: 2297.305000, bitrate: N/A
    Stream #0:0: Video: mjpeg (Baseline) (MJPG / 0x47504A4D), yuvj422p(pc, bt470bg/unknown/unknown), 1280x720, 30 fps, 30 tbr, 10000k tbn, 10000k tbc
Codec AVOption preset (Configuration preset) specified for output file #0 (C:\Users\TEMP\AppData\Roaming\SPB_Data\IBA_IOAPDATA\2020-10-28_09-50-35\videos\video17.webm) has not been used for any stream. The most likely reason is either wrong type (e.g. a video option with no video streams) or that it is a private option of some encoder which was not actually used for any stream.
Stream mapping:
  Stream #0:0 -> #0:0 (mjpeg (native) -> vp9 (libvpx-vp9))
Press [q] to stop, [?] for help
[swscaler @ 06b2a3c0] deprecated pixel format used, make sure you did set range correctly
[libvpx-vp9 @ 06a84b00] v1.8.1-133-g802569640
Output #0, webm, to 'C:\Users\TEMP\AppData\Roaming\SPB_Data\IBA_IOAPDATA\2020-10-28_09-50-35\videos\video17.webm':
  Metadata:
    mac             : 54:e1:ad:7c:c8:80
    created_time    : 2020:10:28_10:09:58
    candidateId     : 3404_56_1
    filename        : video17
    encoder         : Lavf58.29.100
    Stream #0:0: Video: vp9 (libvpx-vp9), yuv420p, 320x240, q=-1--1, 800 kb/s, 10 fps, 1k tbn, 10 tbc
    Metadata:
      encoder         : Lavc58.54.100 libvpx-vp9
    Side data:
      cpb: bitrate max/min/avg: 0/0/0 buffer size: 0 vbv_delay: -1
frame=    6 fps=0.0 q=0.0 size=       1kB time=00:00:00.00 bitrate=N/A dup=0 drop=9 speed=   0x    frame=   12 fps= 12 q=0.0 size=       1kB time=00:00:00.00 bitrate=N/A dup=0 drop=18 speed=   0x    frame=   17 fps= 11 q=0.0 size=       1kB time=00:00:00.00 bitrate=N/A dup=0 drop=28 speed=   0x    frame=   22 fps= 11 q=0.0 size=       1kB time=00:00:00.00 bitrate=N/A dup=0 drop=38 speed=   0x    frame=   27 fps= 11 q=0.0 size=       1kB time=00:00:00.20 bitrate=  30.2kbits/s dup=0 drop=48 speed=0.0795x    frame=   32 fps= 10 q=0.0 size=       1kB time=00:00:00.70 bitrate=   8.7kbits/s dup=0 drop=58 speed=0.229x    frame=   35 fps=9.8 q=0.0 size=       1kB time=00:00:01.00 bitrate=   6.1kbits/s dup=0 drop=64 speed=0.28x    frame=   41 fps= 10 q=0.0 size=       1kB time=00:00:01.60 bitrate=   3.8kbits/s dup=0 drop=76 speed=0.392x    frame=   45 fps=9.5 q=0.0 size=       1kB time=00:00:02.00 bitrate=   3.0kbits/s dup=0 drop=84 speed=0.423x    frame=   50 fps=7.7 q=0.0 Lsize=      58kB time=00:00:04.90 bitrate=  96.8kbits/s dup=0 drop=96 speed=0.751x    
video:57kB audio:0kB subtitle:0kB other streams:0kB global headers:0kB muxing overhead: 1.937058%

[INFO] : 2020-10-28 10:10:05 : Filesize of C:\Users\TEMP\AppData\Roaming\SPB_Data\IBA_IOAPDATA\2020-10-28_09-50-35\videos\video17.webm ::: 57 KB
[INFO] : 2020-10-28 10:10:05 : https://g81.tcsion.com:443//IBAFileUpload/IBAFiles.do?action=RemoteProctoredData&mockId=56&attemptIds=1&candMasterId=3404&orgId=31162&createdBy=13598527&proctoredFileType=video&candidateImageId=14099790_1016&faceComparisonRequired=1&assessmentIndex=_23&startTimeStamp=2020:10:28_10:09:58&endTimeStamp=2020:10:28_10:10:05&fileName=video17.webm
[INFO] : 2020-10-28 10:10:06 : C:\Users\TEMP\AppData\Roaming\SPB_Data\IBA_IOAPDATA\2020-10-28_09-50-35\videos\video17.webm ::: uploaded in 0:00:00.600000
[INFO] : 2020-10-28 10:10:06 : C:\Users\TEMP\AppData\Roaming\SPB_Data\IBA_IOAPDATA\2020-10-28_09-50-35\videos\video17.webm deleted sucessfully.
[INFO] : 2020-10-28 10:10:21 : Hearbeat Response ::: Loaded